<svg xmlns="http://www.w3.org/2000/svg" width="32" height="32" viewBox="0 0 32 32"><g transform="translate(-409 -473)"><circle cx="12" cy="12" r="12" transform="translate(417 481)" fill="#8fbee2"/><g transform="translate(409 468.073)"><path d="M62.643,139.809a1.1,1.1,0,0,0-1.257.725l-1.258-.549c0-.086,0-.171,0-.253a8.784,8.784,0,0,0-.275-2.185l.564-.383a1.257,1.257,0,0,0,2-1.4l-.266-.713a1.264,1.264,0,0,0-1.577-.776,1.259,1.259,0,0,0-.866,1.193l-.64.089c-.088-.161-.183-.324-.286-.486a.359.359,0,0,0-.608.383c.121.192.231.383.329.57a.5.5,0,0,0,.513.265l1.154-.161a.359.359,0,0,0,.288-.477.538.538,0,0,1,.339-.694.555.555,0,0,1,.679.344l.266.713a.557.557,0,0,1-.281.7.541.541,0,0,1-.676-.214.359.359,0,0,0-.509-.111l-.957.649a.5.5,0,0,0-.2.548,8.056,8.056,0,0,1,.29,2.145c0,.119,0,.244-.009.37a.5.5,0,0,0,.3.482l1.795.784a.359.359,0,0,0,.5-.26l.057-.29a.385.385,0,0,1,.756.148l-.294,1.5a.386.386,0,0,1-.471.3.4.4,0,0,1-.281-.469l.008-.04a.359.359,0,0,0-.369-.428l-1.941.089a.5.5,0,0,0-.452.343,8.013,8.013,0,0,1-.71,1.559.5.5,0,0,0,.047.577l.859,1.02a.359.359,0,0,0,.522.029.537.537,0,0,1,.8.716l-.249.325a.555.555,0,0,1-.744.134.54.54,0,0,1-.2-.615.359.359,0,0,0-.2-.444l-1.237-.543a.5.5,0,0,0-.572.122,8.065,8.065,0,0,1-1.893,1.534.5.5,0,0,0-.242.513l.317,1.931a.359.359,0,0,0,.488.275l.274-.11a.386.386,0,0,1,.508.233.4.4,0,0,1-.241.491l-1.4.56a.386.386,0,0,1-.508-.233.4.4,0,0,1,.241-.491l.038-.015a.359.359,0,0,0,.159-.542l-1.129-1.582a.5.5,0,0,0-.533-.193,8.085,8.085,0,0,1-3.636.095.5.5,0,0,0-.523.221l-1.13,1.772a.359.359,0,0,0,.18.531l.04.015a.547.547,0,0,1,.326.7.358.358,0,0,0-.022.123.28.28,0,0,1-.424.3l-1.388-.506a.549.549,0,0,1-.33-.691.53.53,0,0,1,.278-.305.585.585,0,0,1,.449-.023l.032.012a.359.359,0,0,0,.48-.3l.23-2.077a.5.5,0,0,0-.268-.5,8.041,8.041,0,0,1-2.233-1.7.5.5,0,0,0-.558-.125l-1.694.695a.359.359,0,0,0-.181.5.437.437,0,0,1-.146.573.454.454,0,0,1-.614-.135l-.434-.625a.451.451,0,0,1,.075-.612.439.439,0,0,1,.622.08.359.359,0,0,0,.556.021l1.193-1.349a.5.5,0,0,0,.062-.575,8.043,8.043,0,0,1-.355-.724.359.359,0,0,0-.66.284c.1.223.2.443.313.654l-.855.966a1.159,1.159,0,0,0-1.322.079,1.17,1.17,0,0,0-.221,1.586l.434.625a1.176,1.176,0,0,0,1.6.325,1.152,1.152,0,0,0,.511-1.136l1.249-.512a8.755,8.755,0,0,0,2.2,1.676l-.171,1.543a1.308,1.308,0,0,0-.6.126,1.243,1.243,0,0,0-.648.72,1.272,1.272,0,0,0,.763,1.6l1.388.506a1.21,1.21,0,0,0,.414.076.959.959,0,0,0,.555-.169,1.03,1.03,0,0,0,.418-.815,1.268,1.268,0,0,0-.429-1.37l.843-1.323a8.839,8.839,0,0,0,3.668-.1l.82,1.148a1.1,1.1,0,0,0,1.145,1.843l1.4-.56a1.113,1.113,0,0,0,.653-1.393,1.1,1.1,0,0,0-.585-.644,1.11,1.11,0,0,0-.726-.067l-.222-1.353a8.779,8.779,0,0,0,1.827-1.479l.836.367a1.255,1.255,0,0,0,2.264.817l.249-.325a1.256,1.256,0,0,0-1.548-1.892l-.551-.655a8.74,8.74,0,0,0,.648-1.424l1.409-.064a1.1,1.1,0,0,0,2.169.04l.294-1.5A1.105,1.105,0,0,0,62.643,139.809Z" transform="translate(-39.062 -123.092)" fill="#304d7b"/><path d="M2.314,17.688,3.661,18c.029.187.066.377.108.567a.359.359,0,1,0,.7-.157c-.049-.22-.09-.441-.119-.656a.5.5,0,0,0-.383-.42l-1.907-.44a.359.359,0,0,0-.44.347l0,.223a.459.459,0,0,1-.457.453.443.443,0,0,1-.443-.447l.012-1.385a.483.483,0,0,1,.148-.341.431.431,0,0,1,.314-.126.452.452,0,0,1,.438.452.359.359,0,0,0,.441.352l1.893-.444a.5.5,0,0,0,.381-.421,7.955,7.955,0,0,1,1-2.927.5.5,0,0,0-.052-.575l-.9-1.06a.359.359,0,0,0-.56.016l-.078.1a.351.351,0,0,1-.505.057.366.366,0,0,1-.042-.5l.6-.8a.351.351,0,0,1,.576.4.359.359,0,0,0,.16.522l1.263.546a.5.5,0,0,0,.569-.122A8.059,8.059,0,0,1,8.355,9.642a.5.5,0,0,0,.249-.51L8.313,7.2a.359.359,0,0,0-.484-.282l-.276.106a.385.385,0,0,1-.5-.239A.4.4,0,0,1,7.3,6.294L8.7,5.753a.386.386,0,0,1,.5.239.4.4,0,0,1-.248.488l-.038.015a.359.359,0,0,0-.166.54l1.108,1.6a.5.5,0,0,0,.53.2,8.078,8.078,0,0,1,1.92-.23h0a.5.5,0,0,0,.473-.332l.367-1.026a.359.359,0,0,0-.231-.464.582.582,0,0,1-.4-.624.566.566,0,0,1,.219-.379.618.618,0,0,1,.455-.128l.5.063a.6.6,0,0,1,.53.644.579.579,0,0,1-.432.5.359.359,0,0,0-.266.388l.127,1.112a.5.5,0,0,0,.39.432,7.979,7.979,0,0,1,2.285.888.5.5,0,0,0,.566-.044L18.416,8.4a.359.359,0,0,0,0-.56l-.231-.184a.385.385,0,0,1-.05-.556.4.4,0,0,1,.546-.034L19.858,8a.385.385,0,0,1,.05.556.4.4,0,0,1-.546.035l-.032-.025a.359.359,0,0,0-.55.131l-.814,1.767a.5.5,0,0,0,.1.559c.051.052.1.106.161.172a.359.359,0,1,0,.529-.487l-.072-.078.591-1.283A1.1,1.1,0,0,0,20.3,7.439L19.124,6.5a1.113,1.113,0,0,0-1.533.124,1.1,1.1,0,0,0-.269.827,1.109,1.109,0,0,0,.3.663l-1.064.864a8.7,8.7,0,0,0-2.208-.859l-.079-.689A1.3,1.3,0,0,0,13.785,5l-.5-.063a1.343,1.343,0,0,0-.987.275,1.279,1.279,0,0,0-.489.86A1.3,1.3,0,0,0,12.369,7.3l-.208.582a8.8,8.8,0,0,0-1.793.215l-.8-1.159a1.1,1.1,0,0,0-1.12-1.858l-1.407.541a1.113,1.113,0,0,0-.672,1.384,1.1,1.1,0,0,0,.576.651,1.109,1.109,0,0,0,.725.077l.2,1.356A8.772,8.772,0,0,0,5.95,10.625l-.811-.351a1.075,1.075,0,0,0-.407-1.038,1.069,1.069,0,0,0-1.5.208l-.6.8a1.078,1.078,0,0,0,.156,1.482,1.061,1.061,0,0,0,.807.241,1.073,1.073,0,0,0,.509-.2l.544.639a8.662,8.662,0,0,0-.992,2.908l-1.39.326A1.175,1.175,0,0,0,1.212,14.9a1.148,1.148,0,0,0-.832.327,1.207,1.207,0,0,0-.368.851L0,17.462a1.161,1.161,0,0,0,1.161,1.172,1.18,1.18,0,0,0,1.153-.946Z" transform="translate(0)" fill="#304d7b"/><path d="M146.642,134.613a.359.359,0,0,0-.337-.635,1.847,1.847,0,0,1-2.326-.286,1.545,1.545,0,0,1-.266-1.3,2.473,2.473,0,0,1,2.386-1.881,1.546,1.546,0,0,1,1.2.562,1.737,1.737,0,0,1-.013,1.989.359.359,0,0,0,.612.376,2.443,2.443,0,0,0-.035-2.809,2.251,2.251,0,0,0-1.745-.835,3.19,3.19,0,0,0-3.109,2.451,2.251,2.251,0,0,0,.4,1.892,2.291,2.291,0,0,0,1.829.833A2.994,2.994,0,0,0,146.642,134.613Z" transform="translate(-136.107 -118.886)" fill="#304d7b"/><path d="M304.067,136.333a1.559,1.559,0,1,0-1.545,1.351A1.459,1.459,0,0,0,304.067,136.333Zm-2.371,0a.856.856,0,1,1,.826.632A.75.75,0,0,1,301.7,136.333Z" transform="translate(-286.562 -123.827)" fill="#304d7b"/><path d="M212.646,259.178a1.655,1.655,0,1,0-1.655,1.655A1.657,1.657,0,0,0,212.646,259.178Zm-2.592,0a.937.937,0,1,1,.937.937A.938.938,0,0,1,210.054,259.178Z" transform="translate(-199.31 -240.499)" fill="#304d7b"/><path d="M325.054,252.4a1.287,1.287,0,1,0-1.287,1.287A1.289,1.289,0,0,0,325.054,252.4Zm-1.856,0a.569.569,0,1,1,.569.569A.569.569,0,0,1,323.2,252.4Z" transform="translate(-307.036 -234.393)" fill="#304d7b"/><path d="M252.726,348.72a1.261,1.261,0,1,0-1.261-1.261A1.263,1.263,0,0,0,252.726,348.72Zm0-1.8a.543.543,0,1,1-.543.543A.544.544,0,0,1,252.726,346.915Z" transform="translate(-239.422 -324.926)" fill="#304d7b"/><path d="M134.117,302.952a1.3,1.3,0,1,0-1.3-1.3A1.3,1.3,0,0,0,134.117,302.952Zm0-1.88a.581.581,0,1,1-.581.581A.581.581,0,0,1,134.117,301.072Z" transform="translate(-126.457 -281.279)" fill="#304d7b"/><path d="M292.069,226.472a.359.359,0,0,0-.359-.359h-.318a.359.359,0,1,0,0,.718h.318A.359.359,0,0,0,292.069,226.472Z" transform="translate(-277.095 -210.593)" fill="#304d7b"/><path d="M202.884,357.931h.326a.359.359,0,1,0,0-.718h-.326a.359.359,0,1,0,0,.718Z" transform="translate(-192.826 -335.415)" fill="#304d7b"/><path d="M133.491,248.709a.359.359,0,0,0,0-.718h-.314a.359.359,0,0,0,0,.718Z" transform="translate(-126.457 -231.423)" fill="#304d7b"/><path d="M264.252,117.492a.359.359,0,0,0,0-.718h-.437a.359.359,0,0,0,0,.718Z" transform="translate(-250.837 -106.491)" fill="#304d7b"/><path d="M322.838,332.8a.359.359,0,0,0,0,.718h.483a.359.359,0,0,0,0-.718Z" transform="translate(-307.035 -312.168)" fill="#304d7b"/></g></g></svg>